<?xml version="1.0" encoding="UTF-8" standalone="no"?>
<svg
   xmlns:dc="http://purl.org/dc/elements/1.1/"
   xmlns:cc="http://creativecommons.org/ns#"
   xmlns:rdf="http://www.w3.org/1999/02/22-rdf-syntax-ns#"
   xmlns:svg="http://www.w3.org/2000/svg"
   xmlns="http://www.w3.org/2000/svg"
   viewBox="0 0 793.70667 240.33733"
   height="240.33733"
   width="793.70667"
   xml:space="preserve"
   id="svg2"
   version="1.1"><metadata
     id="metadata8"><rdf:RDF><cc:Work
         rdf:about=""><dc:format>image/svg+xml</dc:format><dc:type
           rdf:resource="http://purl.org/dc/dcmitype/StillImage" /></cc:Work></rdf:RDF></metadata><defs
     id="defs6"><clipPath
       id="clipPath24"
       clipPathUnits="userSpaceOnUse"><path
         id="path22"
         d="M 0,180.253 H 595.28 V 0 H 0 Z" /></clipPath></defs><g
     transform="matrix(1.3333333,0,0,-1.3333333,0,240.33733)"
     id="g10"><path
       id="path12"
       style="fill:#9ece6c;fill-opacity:1;fill-rule:nonzero;stroke:none"
       d="M 0.003,0.023 H 595.277 V 60.099 H 0.003 Z" /><path
       id="path14"
       style="fill:#007ac0;fill-opacity:1;fill-rule:nonzero;stroke:none"
       d="M 0.003,60.098 H 595.277 V 180.237 H 0.003 Z" /><path
       id="path16"
       style="fill:#ffffff;fill-opacity:1;fill-rule:nonzero;stroke:none"
       d="M 446.424,60.098 H 148.853 v 60.143 h 297.571 z" /><g
       id="g18"><g
         clip-path="url(#clipPath24)"
         id="g20"><g
           transform="translate(416.7813,86.1987)"
           id="g26"><path
             id="path28"
             style="fill:#373535;fill-opacity:1;fill-rule:nonzero;stroke:none"
             d="m 0,0 c -2.604,0.114 -5.547,0.345 -8.609,0.345 -6.907,0 -12.344,-2.163 -12.344,-7.844 0,-4.087 3.629,-6.476 8.385,-6.476 C -4.869,-13.975 0,-6.93 0,0" /></g><g
           transform="translate(412.7887,120.2412)"
           id="g30"><path
             id="path32"
             style="fill:#373535;fill-opacity:1;fill-rule:nonzero;stroke:none"
             d="m 0,0 c 12.801,-1.37 23.02,-8.274 23.02,-24.272 v -22.044 c 0,-4.61 0.222,-9.216 1.11,-13.827 h 9.505 V 0 Z" /></g><g
           transform="translate(407.2676,97.4467)"
           id="g34"><path
             id="path36"
             style="fill:#373535;fill-opacity:1;fill-rule:nonzero;stroke:none"
             d="M 0,0 C 3.289,0 6.91,-0.34 9.514,-0.798 9.402,7.269 3.396,9.429 -3.959,9.429 -10.527,9.429 -17.1,8.178 -22.762,5.004 l -0.336,13.853 c 5.364,2.185 10.916,3.434 16.974,3.938 h -60.822 c 4.893,-0.402 9.742,-1.327 14.311,-3.145 L -54.217,5.445 c -4.303,2.613 -10.762,3.98 -15.855,3.98 -4.418,0 -9.403,-0.798 -9.403,-4.093 0,-9.202 30.35,-1.929 30.35,-24.429 0,-10.688 -6.488,-15.959 -14.825,-18.252 h 45.927 c -7.201,2.467 -12.436,8.023 -12.436,17.124 C -30.459,-2.156 -10.873,0 0,0" /></g><g
           transform="translate(255.7661,120.2412)"
           id="g38"><path
             id="path40"
             style="fill:#373535;fill-opacity:1;fill-rule:nonzero;stroke:none"
             d="M 0,0 V -25.103 L 17.946,0 Z" /></g><g
           transform="translate(255.7661,60.0981)"
           id="g42"><path
             id="path44"
             style="fill:#373535;fill-opacity:1;fill-rule:nonzero;stroke:none"
             d="M 0,0 H 18.493 L 0.166,26.857 H 0 Z" /></g><g
           transform="translate(308.7637,101.3066)"
           id="g46"><path
             id="path48"
             style="fill:#373535;fill-opacity:1;fill-rule:nonzero;stroke:none"
             d="M 0,0 C 0,11.94 10.263,17.693 20.724,18.935 H -16.894 L -38.319,-9.573 -14.796,-41.208 H 5.352 c -1.681,0.371 -3.297,0.811 -4.895,1.327 l 1.135,14.886 c 4.756,-2.047 11.777,-4.092 19.135,-4.092 4.195,0 8.267,0.672 8.267,4.768 C 28.994,-14.315 0,-21.363 0,0" /></g><g
           transform="translate(158.3354,77.2212)"
           id="g50"><path
             id="path52"
             style="fill:#373535;fill-opacity:1;fill-rule:nonzero;stroke:none"
             d="m 0,0 c 0,18.069 19.589,20.225 30.461,20.225 3.286,0 6.906,-0.34 9.516,-0.797 -0.114,8.066 -6.117,10.226 -13.476,10.226 -6.57,0 -13.14,-1.25 -18.801,-4.425 L 7.361,39.083 c 5.363,2.185 10.916,3.433 16.975,3.937 H -9.482 V -17.123 H 12.435 C 5.235,-14.657 0,-9.101 0,0" /></g><g
           transform="translate(198.312,86.1987)"
           id="g54"><path
             id="path56"
             style="fill:#373535;fill-opacity:1;fill-rule:nonzero;stroke:none"
             d="m 0,0 c -2.609,0.114 -5.551,0.345 -8.611,0.345 -6.909,0 -12.344,-2.163 -12.344,-7.844 0,-4.087 3.628,-6.476 8.385,-6.476 C -4.872,-13.975 0,-6.93 0,0" /></g><g
           transform="translate(194.3162,120.2412)"
           id="g58"><path
             id="path60"
             style="fill:#373535;fill-opacity:1;fill-rule:nonzero;stroke:none"
             d="m 0,0 c 12.8,-1.37 23.019,-8.274 23.019,-24.272 v -22.044 c 0,-4.61 0.225,-9.216 1.11,-13.827 h 21.52 V 0 Z" /></g><g
           transform="translate(417.7969,69.269)"
           id="g62"><path
             id="path64"
             style="fill:#373535;fill-opacity:1;fill-rule:nonzero;stroke:none"
             d="M 0,0 H -0.225 C -3.081,-4.546 -6.332,-7.539 -10.364,-9.171 H 0.45 C 0.334,-6.047 0,-3.027 0,0" /></g><g
           transform="translate(199.3286,69.269)"
           id="g66"><path
             id="path68"
             style="fill:#373535;fill-opacity:1;fill-rule:nonzero;stroke:none"
             d="M 0,0 H -0.226 C -3.087,-4.546 -6.338,-7.539 -10.369,-9.171 H 0.446 C 0.33,-6.047 0,-3.027 0,0" /></g></g></g></g></svg>